<svg xmlns="http://www.w3.org/2000/svg" width="45" height="45" viewBox="0 0 45 45">
    <path id="knight-silhouette" d="M9.7 39.65 L9.7 36.95 L9.72659 36.7514 L9.80002 36.5755 L9.91967 36.4197 L10.0755 36.3 L10.2514 36.2266 L10.45 36.2 L11.9444 36.2 L13.2192 34.4791 L13.146 34.4675 L12.9675 34.3755 L12.8245 34.2325 L12.7325 34.054 L12.7 33.85 L12.7 31.65 L12.7325 31.446 L12.8245 31.2675 L12.9675 31.1245 L13.146 31.0325 L13.35 31 L14.6755 31 L14.7333 30.6712 L15.0343 29.292 L15.4 27.9 L15.7297 26.8873 L16.1992 25.636 L16.7513 24.3182 L17.2643 23.22 L17.65 22.5 L18.0382 21.6636 L18.3258 20.9222 L18.5163 20.2867 L18.618 19.775 L18.65 19.35 L18.4168 19.6163 L18.0706 19.9143 L17.593 20.2449 L16.975 20.5973 L16.2557 20.9377 L15.5217 21.2218 L14.8629 21.4204 L14.3212 21.5322 L13.9054 21.5702 L13.6 21.55 L13.1034 21.4915 L12.6589 21.3773 L12.223 21.1989 L11.8616 20.9875 L11.5593 20.7422 L11.35 20.5 L11.1444 20.2008 L10.991 19.8978 L10.8933 19.6092 L10.8479 19.3306 L10.85 19.05 L10.8853 18.7789 L10.9849 18.5191 L11.1589 18.2592 L11.4142 17.9978 L11.75 17.75 L12.4774 17.2734 L13.3556 16.6104 L14.75 15.45 L15.6663 14.6448 L17.45 13 L17.7773 12.651 L18.1422 12.1357 L18.65 11.25 L18.5507 10.602 L18.3781 9.92776 L18.167 9.33895 L17.9786 8.96062 L17.85 8.8 L17.9809 8.66134 L18.12 8.57498 L18.2579 8.53915 L18.4 8.55 L18.7039 8.66457 L19.1405 8.90604 L20.0997 9.55219 L21.0357 10.1826 L21.5745 10.4902 L21.9911 10.6761 L22.3411 10.7758 L22.9428 10.9237 L23.5305 11.1339 L24.1098 11.4096 L24.6863 11.7551 L25.2458 12.165 L25.7914 12.6446 L26.3163 13.1907 L26.8167 13.8033 L27.2866 14.4786 L27.722 15.2154 L28.1182 16.0095 L28.4676 16.8513 L28.772 17.75 L29.1329 19.063 L29.456 20.493 L29.7538 22.1162 L30.0132 23.922 L30.2201 25.8347 L30.3703 27.8036 L30.4663 29.8787 L30.4841 31 L31.65 31 L31.854 31.0325 L32.0325 31.1245 L32.1755 31.2675 L32.2675 31.446 L32.3 31.65 L32.3 33.85 L32.2675 34.054 L32.1755 34.2325 L32.0325 34.3755 L31.854 34.4675 L31.7808 34.4791 L33.0556 36.2 L34.55 36.2 L34.7486 36.2266 L34.9245 36.3 L35.0803 36.4197 L35.2 36.5755 L35.2734 36.7514 L35.3 36.95 L35.3 39.65 L35.2734 39.8486 L35.2 40.0245 L35.0803 40.1803 L34.9245 40.3 L34.7486 40.3734 L34.55 40.4 L10.45 40.4 L10.2514 40.3734 L10.0755 40.3 L9.91967 40.1803 L9.80002 40.0245 L9.72659 39.8486Z" fill="#302b26" stroke="none" />
    <path id="collar-shadow" d="M12.9 33.35 L32.1 33.35 L32.1 34.1 L12.9 34.1Z" fill="#17130f" stroke="none" />
    <path id="plinth-shadow" d="M10.3 38.85 L34.7 38.85 L34.7 39.65 L10.3 39.65Z" fill="#17130f" stroke="none" />
</svg>
